<mxfile host="app.diagrams.net" agent="Mozilla/5.0 (Macintosh; Intel Mac OS X 10_15_7) AppleWebKit/537.36 (KHTML, like Gecko) Chrome/131.0.0.0 Safari/537.36" version="25.0.3">
  <diagram name="Page-1" id="8V9ePrRybD0K3nwTITbp">
    <mxGraphModel dx="1029" dy="743" grid="1" gridSize="10" guides="1" tooltips="1" connect="1" arrows="1" fold="1" page="1" pageScale="1" pageWidth="1600" pageHeight="900" math="0" shadow="0">
      <root>
        <mxCell id="0" />
        <mxCell id="1" parent="0" />
        <mxCell id="xbOteC3gueSsfOQXaDQX-7" value="" style="rounded=0;whiteSpace=wrap;html=1;fillColor=none;gradientColor=none;fillStyle=auto;" vertex="1" parent="1">
          <mxGeometry x="242.5" y="90" width="560" height="270" as="geometry" />
        </mxCell>
        <mxCell id="xbOteC3gueSsfOQXaDQX-1" value="&lt;font style=&quot;font-size: 17px;&quot;&gt;web&lt;/font&gt;" style="text;html=1;align=center;verticalAlign=middle;whiteSpace=wrap;rounded=0;" vertex="1" parent="1">
          <mxGeometry x="47.5" y="180" width="70" height="40" as="geometry" />
        </mxCell>
        <mxCell id="xbOteC3gueSsfOQXaDQX-2" value="" style="html=1;verticalLabelPosition=bottom;align=center;labelBackgroundColor=#ffffff;verticalAlign=top;strokeWidth=2;strokeColor=#000000;shadow=0;dashed=0;shape=mxgraph.ios7.icons.cloud;" vertex="1" parent="1">
          <mxGeometry x="40" y="130" width="85" height="50" as="geometry" />
        </mxCell>
        <mxCell id="xbOteC3gueSsfOQXaDQX-3" value="" style="html=1;verticalAlign=bottom;labelBackgroundColor=none;endArrow=open;endFill=0;dashed=1;rounded=0;" edge="1" parent="1">
          <mxGeometry width="160" relative="1" as="geometry">
            <mxPoint x="152.5" y="140" as="sourcePoint" />
            <mxPoint x="262.5" y="140" as="targetPoint" />
          </mxGeometry>
        </mxCell>
        <mxCell id="xbOteC3gueSsfOQXaDQX-4" value="" style="html=1;verticalAlign=bottom;labelBackgroundColor=none;endArrow=block;endFill=1;dashed=1;rounded=0;" edge="1" parent="1">
          <mxGeometry width="160" relative="1" as="geometry">
            <mxPoint x="262.5" y="169.65" as="sourcePoint" />
            <mxPoint x="152.5" y="169.65" as="targetPoint" />
          </mxGeometry>
        </mxCell>
        <mxCell id="xbOteC3gueSsfOQXaDQX-5" value="&lt;font style=&quot;font-size: 13px;&quot;&gt;request&lt;/font&gt;" style="text;html=1;align=center;verticalAlign=middle;whiteSpace=wrap;rounded=0;" vertex="1" parent="1">
          <mxGeometry x="162.5" y="110" width="70" height="40" as="geometry" />
        </mxCell>
        <mxCell id="xbOteC3gueSsfOQXaDQX-6" value="&lt;font style=&quot;font-size: 13px;&quot;&gt;response&lt;/font&gt;" style="text;html=1;align=center;verticalAlign=middle;whiteSpace=wrap;rounded=0;" vertex="1" parent="1">
          <mxGeometry x="162.5" y="140" width="70" height="40" as="geometry" />
        </mxCell>
        <mxCell id="xbOteC3gueSsfOQXaDQX-9" value="" style="strokeWidth=2;html=1;shape=mxgraph.flowchart.database;whiteSpace=wrap;" vertex="1" parent="1">
          <mxGeometry x="872.5" y="120" width="60" height="60" as="geometry" />
        </mxCell>
        <mxCell id="xbOteC3gueSsfOQXaDQX-11" value="&lt;font style=&quot;font-size: 17px;&quot;&gt;database&lt;/font&gt;" style="text;html=1;align=center;verticalAlign=middle;whiteSpace=wrap;rounded=0;" vertex="1" parent="1">
          <mxGeometry x="867.5" y="175" width="70" height="40" as="geometry" />
        </mxCell>
        <mxCell id="xbOteC3gueSsfOQXaDQX-12" value="&lt;font style=&quot;font-size: 17px;&quot;&gt;Java + Spring web app&lt;/font&gt;" style="text;html=1;align=center;verticalAlign=bottom;whiteSpace=wrap;rounded=0;" vertex="1" parent="1">
          <mxGeometry x="432.5" y="40" width="180" height="40" as="geometry" />
        </mxCell>
        <mxCell id="xbOteC3gueSsfOQXaDQX-13" value="" style="rounded=0;whiteSpace=wrap;html=1;" vertex="1" parent="1">
          <mxGeometry x="272.5" y="120" width="120" height="70" as="geometry" />
        </mxCell>
        <mxCell id="xbOteC3gueSsfOQXaDQX-14" value="&lt;font style=&quot;font-size: 17px;&quot;&gt;Controller&lt;/font&gt;" style="text;html=1;align=center;verticalAlign=middle;whiteSpace=wrap;rounded=0;" vertex="1" parent="1">
          <mxGeometry x="297.5" y="135" width="70" height="40" as="geometry" />
        </mxCell>
        <mxCell id="xbOteC3gueSsfOQXaDQX-16" value="" style="rounded=0;whiteSpace=wrap;html=1;" vertex="1" parent="1">
          <mxGeometry x="462.5" y="120" width="120" height="70" as="geometry" />
        </mxCell>
        <mxCell id="xbOteC3gueSsfOQXaDQX-15" value="&lt;font style=&quot;font-size: 17px;&quot;&gt;Service&lt;/font&gt;" style="text;html=1;align=center;verticalAlign=middle;whiteSpace=wrap;rounded=0;" vertex="1" parent="1">
          <mxGeometry x="487.5" y="135" width="70" height="40" as="geometry" />
        </mxCell>
        <mxCell id="xbOteC3gueSsfOQXaDQX-17" value="" style="endArrow=classic;startArrow=classic;html=1;rounded=0;" edge="1" parent="1">
          <mxGeometry width="50" height="50" relative="1" as="geometry">
            <mxPoint x="782.5002702702704" y="157.16" as="sourcePoint" />
            <mxPoint x="862.5" y="157.16" as="targetPoint" />
            <Array as="points" />
          </mxGeometry>
        </mxCell>
        <mxCell id="xbOteC3gueSsfOQXaDQX-18" value="" style="endArrow=classic;startArrow=classic;html=1;rounded=0;" edge="1" parent="1">
          <mxGeometry width="50" height="50" relative="1" as="geometry">
            <mxPoint x="402.62027027027045" y="159.84" as="sourcePoint" />
            <mxPoint x="452.5" y="159.84" as="targetPoint" />
            <Array as="points" />
          </mxGeometry>
        </mxCell>
        <mxCell id="xbOteC3gueSsfOQXaDQX-20" value="" style="endArrow=classic;startArrow=classic;html=1;rounded=0;" edge="1" parent="1">
          <mxGeometry width="50" height="50" relative="1" as="geometry">
            <mxPoint x="592.5002702702704" y="159.84" as="sourcePoint" />
            <mxPoint x="642.38" y="159.84" as="targetPoint" />
            <Array as="points" />
          </mxGeometry>
        </mxCell>
        <mxCell id="xbOteC3gueSsfOQXaDQX-21" value="" style="rounded=0;whiteSpace=wrap;html=1;" vertex="1" parent="1">
          <mxGeometry x="652.38" y="120" width="120" height="70" as="geometry" />
        </mxCell>
        <mxCell id="xbOteC3gueSsfOQXaDQX-22" value="&lt;font style=&quot;font-size: 17px;&quot;&gt;Repository&lt;/font&gt;" style="text;html=1;align=center;verticalAlign=middle;whiteSpace=wrap;rounded=0;" vertex="1" parent="1">
          <mxGeometry x="677.38" y="135" width="70" height="40" as="geometry" />
        </mxCell>
        <mxCell id="xbOteC3gueSsfOQXaDQX-27" value="" style="rounded=0;whiteSpace=wrap;html=1;" vertex="1" parent="1">
          <mxGeometry x="652.38" y="260" width="120" height="70" as="geometry" />
        </mxCell>
        <mxCell id="xbOteC3gueSsfOQXaDQX-28" value="&lt;font style=&quot;font-size: 17px;&quot;&gt;Domain&lt;/font&gt;" style="text;html=1;align=center;verticalAlign=middle;whiteSpace=wrap;rounded=0;" vertex="1" parent="1">
          <mxGeometry x="677.38" y="275" width="70" height="40" as="geometry" />
        </mxCell>
        <mxCell id="xbOteC3gueSsfOQXaDQX-29" value="" style="rounded=0;whiteSpace=wrap;html=1;" vertex="1" parent="1">
          <mxGeometry x="462.5" y="260" width="120" height="70" as="geometry" />
        </mxCell>
        <mxCell id="xbOteC3gueSsfOQXaDQX-30" value="&lt;font style=&quot;font-size: 17px;&quot;&gt;Client&lt;/font&gt;" style="text;html=1;align=center;verticalAlign=middle;whiteSpace=wrap;rounded=0;" vertex="1" parent="1">
          <mxGeometry x="487.5" y="275" width="70" height="40" as="geometry" />
        </mxCell>
        <mxCell id="xbOteC3gueSsfOQXaDQX-32" value="" style="endArrow=classic;startArrow=classic;html=1;rounded=0;" edge="1" parent="1">
          <mxGeometry width="50" height="50" relative="1" as="geometry">
            <mxPoint x="522.62" y="200" as="sourcePoint" />
            <mxPoint x="522.5" y="250" as="targetPoint" />
            <Array as="points" />
          </mxGeometry>
        </mxCell>
        <mxCell id="xbOteC3gueSsfOQXaDQX-33" value="" style="endArrow=classic;startArrow=classic;html=1;rounded=0;" edge="1" parent="1">
          <mxGeometry width="50" height="50" relative="1" as="geometry">
            <mxPoint x="522.5" y="340" as="sourcePoint" />
            <mxPoint x="522.5" y="420" as="targetPoint" />
            <Array as="points" />
          </mxGeometry>
        </mxCell>
        <mxCell id="xbOteC3gueSsfOQXaDQX-34" value="" style="rounded=0;whiteSpace=wrap;html=1;" vertex="1" parent="1">
          <mxGeometry x="462.5" y="430" width="120" height="70" as="geometry" />
        </mxCell>
        <mxCell id="xbOteC3gueSsfOQXaDQX-35" value="&lt;font style=&quot;font-size: 17px;&quot;&gt;Private RU API&lt;/font&gt;" style="text;html=1;align=center;verticalAlign=middle;whiteSpace=wrap;rounded=0;" vertex="1" parent="1">
          <mxGeometry x="487.5" y="445" width="70" height="40" as="geometry" />
        </mxCell>
      </root>
    </mxGraphModel>
  </diagram>
</mxfile>
